<?xml version="1.0" encoding="utf-8"?>
<!-- Generator: Adobe Illustrator 19.0.1, SVG Export Plug-In . SVG Version: 6.00 Build 0)  -->
<svg version="1.1" id="Layer_1" xmlns="http://www.w3.org/2000/svg" xmlns:xlink="http://www.w3.org/1999/xlink" x="0px" y="0px"
	 viewBox="-525 485.2 147.2 31.8" style="enable-background:new -525 485.2 147.2 31.8;" xml:space="preserve">
<style type="text/css">
	.st0{fill:#48D5B5;}
</style>
<g>
	<path class="st0" d="M-383.4,503.6c-0.1-2.1-1.4-4.1-4.7-4.1c-2.9,0-4.5,2.2-4.7,4.1H-383.4z M-378.1,510.4
		c-1.1,3.6-4.4,6.6-9.5,6.6c-5.7,0-10.8-4.1-10.8-11.1c0-6.6,4.9-11,10.2-11c6.4,0,10.3,4.1,10.3,10.8c0,0.8-0.1,1.7-0.1,1.7h-14.9
		c0.1,2.8,2.5,4.7,5.2,4.7c2.6,0,4.1-1.3,4.7-3.2L-378.1,510.4z M-414.4,504.4c0-2.4,1.4-4.3,3.9-4.3c2.7,0,3.9,1.8,3.9,4.1v12.1
		h5.6v-13.1c0-4.6-2.4-8.3-7.5-8.3c-2.2,0-4.7,1-6,3.1v-2.6h-5.5v20.8h5.6V504.4z M-429.1,495.5h5.6v20.8h-5.6V495.5z M-426.3,485.2
		c1.9,0,3.5,1.6,3.5,3.5s-1.5,3.4-3.5,3.4c-1.9,0-3.5-1.6-3.5-3.4C-429.8,486.8-428.2,485.2-426.3,485.2 M-457.6,504.4
		c0-2.4,1.4-4.3,3.9-4.3c2.7,0,3.9,1.8,3.9,4.1v12.1h5.6v-13.1c0-4.6-2.4-8.3-7.5-8.3c-2.2,0-4.7,1-6,3.1v-2.6h-5.5v20.8h5.6V504.4z
		 M-472.5,495.5h5.6v20.8h-5.6V495.5z M-469.8,485.2c1.9,0,3.5,1.6,3.5,3.5s-1.5,3.4-3.5,3.4c-1.9,0-3.5-1.6-3.5-3.4
		C-473.2,486.8-471.7,485.2-469.8,485.2 M-485.8,512.8c-1.8,0-2.7-1.2-2.7-2.4c0-1.6,1.1-2.4,2.6-2.6l4.7-0.7v0.9
		C-481.2,511.6-483.4,512.8-485.8,512.8 M-494.1,510.7c0,3.3,2.7,6.3,7.2,6.3c3.1,0,5.1-1.4,6.1-3.1c0,0.8,0.1,1.9,0.2,2.5h5.2
		c-0.1-0.7-0.3-2.2-0.3-3.3v-10.3c0-4.2-2.5-7.9-9.1-7.9c-5.6,0-8.6,3.6-8.9,6.9l5,1.1c0.2-1.8,1.5-3.4,4-3.4c2.4,0,3.5,1.2,3.5,2.7
		c0,0.7-0.4,1.3-1.6,1.5l-5.1,0.8C-491.4,504.9-494.1,507-494.1,510.7 M-495.8,501.1c-0.6-0.1-1.2-0.2-1.7-0.2
		c-2.9,0-5.4,1.4-5.4,5.9v9.5h-5.6v-20.8h5.5v3.1c1.3-2.8,4.1-3.3,5.9-3.3c0.5,0,0.9,0,1.3,0.1
		C-495.8,495.4-495.8,501.1-495.8,501.1z M-511.6,495.8v4.9h-6.5c0.6-0.3,1.1-0.8,1.6-1.2c1-1,1.7-2.2,2.2-3.7H-511.6z
		 M-523.4,500.7h-1.6v-4.9h9.1c-0.6,1.5-1.5,2.7-2.8,3.6C-519.9,500.2-521.5,500.6-523.4,500.7 M-513.3,511.7c0.7,0,1.4-0.1,1.7-0.2
		v4.7c-0.5,0.2-1.5,0.5-3.1,0.5c-4,0-6.5-2.4-6.5-6.4V502h5.5v7.4C-515.7,511.1-514.9,511.7-513.3,511.7 M-515.7,494.5v-4.9h-5v2.9
		c0,0.8-0.2,1.5-0.6,2H-515.7z M-432.2,511.7c-0.3,0-0.6,0-1,0c-1.6,0-2.4-0.6-2.4-2.4v-23.2h-5.5v24.2c0,4,2.5,6.4,6.5,6.4
		c1,0,1.8-0.1,2.4-0.3V511.7z"/>
</g>
</svg>
